<?xml version="1.0" encoding="UTF-8"?> <svg xmlns="http://www.w3.org/2000/svg" width="228" height="228" viewBox="0 0 228 228" fill="none"> <circle cx="114" cy="114" r="113" fill="white" stroke="#343747" stroke-width="2"></circle> <path d="M195 114C195 158.735 158.735 195 114 195C69.2649 195 33 158.735 33 114C33 69.2649 69.2649 33 114 33C158.735 33 195 69.2649 195 114Z" fill="#2C54C5" stroke="#343747" stroke-width="2"></path> <path d="M179.908 89.0978C179.908 118.135 156.369 141.674 127.332 141.674C98.2943 141.674 74.7549 118.135 74.7549 89.0978C74.7549 60.0605 98.2943 36.5211 127.332 36.5211C156.369 36.5211 179.908 60.0605 179.908 89.0978Z" fill="#839EEA" stroke="#343747" stroke-width="2"></path> <path d="M138.657 109.472C138.657 124.2 126.717 136.14 111.988 136.14C97.2593 136.14 85.3193 124.2 85.3193 109.472C85.3193 94.7428 97.2593 82.8028 111.988 82.8028C126.717 82.8028 138.657 94.7428 138.657 109.472Z" fill="white" stroke="#343747" stroke-width="2"></path> </svg> 