<?xml version="1.0" encoding="UTF-8"?> <svg xmlns="http://www.w3.org/2000/svg" width="172" height="40" viewBox="0 0 172 40" fill="none"> <path d="M39.5 20C39.5 30.7696 30.7696 39.5 20 39.5C9.23045 39.5 0.5 30.7696 0.5 20C0.5 9.23045 9.23045 0.5 20 0.5C30.7696 0.5 39.5 9.23045 39.5 20Z" fill="#839EEA" stroke="#2C54C5"></path> <path d="M35.8186 13.9264C35.8186 20.8672 30.1919 26.4939 23.2511 26.4939C16.3102 26.4939 10.6836 20.8672 10.6836 13.9264C10.6836 6.98554 16.3102 1.35889 23.2511 1.35889C30.1919 1.35889 35.8186 6.98554 35.8186 13.9264Z" fill="#ECF1FF" stroke="#2C54C5"></path> <path d="M25.7577 18.8957C25.7577 22.3466 22.9601 25.1441 19.5092 25.1441C16.0583 25.1441 13.2607 22.3466 13.2607 18.8957C13.2607 15.4448 16.0583 12.6472 19.5092 12.6472C22.9601 12.6472 25.7577 15.4448 25.7577 18.8957Z" fill="white" stroke="#2C54C5"></path> <path d="M56.99 30.5H61.72V25.748C61.72 25.682 61.72 25.484 61.698 25.11C61.676 24.736 61.676 24.516 61.676 24.406H61.72C62.622 24.934 63.59 25.198 64.646 25.198C67.638 25.198 69.398 22.91 69.398 19.368C69.398 15.562 67.726 14.022 65.284 14.022C64.69 14.022 64.052 14.154 63.634 14.308C63.436 14.374 63.194 14.484 62.952 14.616C62.424 14.902 62.314 14.99 61.94 15.276L61.632 15.474H61.588V14.22H56.99V30.5ZM64.602 19.698C64.602 21.194 64.096 21.942 63.106 21.942C62.688 21.942 62.182 21.81 61.632 21.524V18.334C62.094 17.872 62.644 17.63 63.238 17.63C64.14 17.63 64.602 18.312 64.602 19.698ZM70.1204 22.954C71.4184 24.34 73.7944 25.198 76.1924 25.198C78.0624 25.198 79.6024 24.78 80.8344 23.966C82.0664 23.152 82.6824 21.964 82.6824 20.424C82.6824 19.456 82.3524 18.664 81.7144 18.07C81.0544 17.476 80.3064 17.146 79.4704 17.124V16.926C80.3284 16.794 81.0544 16.376 81.6704 15.672C82.2644 14.99 82.5724 14.22 82.5724 13.384C82.5724 10.898 80.4824 9.402 76.8744 9.402C74.1464 9.402 71.8584 10.414 70.4504 11.734L72.7384 14.484C73.8164 13.714 74.8724 13.34 75.9284 13.34C77.0504 13.34 77.6224 13.692 77.6224 14.418C77.6224 15.1 76.9844 15.584 75.8184 15.584H74.6524V19.016H75.9284C77.1384 19.016 77.7544 19.39 77.7544 20.138C77.7544 20.886 77.0724 21.26 75.7304 21.26C74.4104 21.26 73.1564 20.82 71.9904 19.94L70.1204 22.954ZM84.0265 19.676C84.0265 24.142 87.1945 25.198 90.6925 25.198C92.6505 25.198 94.3665 24.626 95.8845 23.46L94.2785 21.04C93.3765 21.722 92.3645 22.074 91.2205 22.074C89.7465 22.074 88.8885 21.26 88.8225 20.182H96.1925V19.412C96.1925 17.806 95.7525 16.486 94.8505 15.496C93.9485 14.506 92.4965 14.022 90.4725 14.022C88.5585 14.022 86.9965 14.506 85.8085 15.474C84.6205 16.464 84.0265 17.85 84.0265 19.676ZM88.8225 18.202C88.9105 16.97 89.6145 16.508 90.3405 16.508C91.1325 16.508 91.7485 16.992 91.7485 18.202H88.8225ZM96.3236 25H101.428L102.506 22.844C102.572 22.734 102.748 22.316 103.034 21.612H103.166C103.496 22.404 103.672 22.8 103.672 22.822L104.772 25H110.096L106.554 19.302L109.832 14.22H104.728L103.672 16.53C103.496 16.904 103.386 17.234 103.342 17.542H103.166C103.1 17.212 102.99 16.86 102.836 16.508L101.868 14.22H96.5656L99.9096 19.28L96.3236 25ZM110.98 30.5H115.71V25.748C115.71 25.682 115.71 25.484 115.688 25.11C115.666 24.736 115.666 24.516 115.666 24.406H115.71C116.612 24.934 117.58 25.198 118.636 25.198C121.628 25.198 123.388 22.91 123.388 19.368C123.388 15.562 121.716 14.022 119.274 14.022C118.68 14.022 118.042 14.154 117.624 14.308C117.426 14.374 117.184 14.484 116.942 14.616C116.414 14.902 116.304 14.99 115.93 15.276L115.622 15.474H115.578V14.22H110.98V30.5ZM118.592 19.698C118.592 21.194 118.086 21.942 117.096 21.942C116.678 21.942 116.172 21.81 115.622 21.524V18.334C116.084 17.872 116.634 17.63 117.228 17.63C118.13 17.63 118.592 18.312 118.592 19.698ZM124.881 25H129.611V19.016C129.941 18.774 130.315 18.598 130.733 18.466C131.569 18.224 131.921 18.246 132.911 18.246C133.285 18.246 133.615 18.268 133.945 18.334L134.275 14.088C134.077 14.044 133.725 14.022 133.241 14.022C131.723 14.022 130.843 14.704 129.523 16.134H129.479V14.22H124.881V25ZM134.858 19.676C134.858 24.142 138.026 25.198 141.524 25.198C143.482 25.198 145.198 24.626 146.716 23.46L145.11 21.04C144.208 21.722 143.196 22.074 142.052 22.074C140.578 22.074 139.72 21.26 139.654 20.182H147.024V19.412C147.024 17.806 146.584 16.486 145.682 15.496C144.78 14.506 143.328 14.022 141.304 14.022C139.39 14.022 137.828 14.506 136.64 15.474C135.452 16.464 134.858 17.85 134.858 19.676ZM139.654 18.202C139.742 16.97 140.446 16.508 141.172 16.508C141.964 16.508 142.58 16.992 142.58 18.202H139.654ZM147.986 23.548C149.152 24.494 151.22 25.198 153.684 25.198C157.292 25.198 159.338 23.988 159.338 21.81C159.338 20.38 158.238 19.038 156.104 18.422L154.52 17.96C154.454 17.938 154.388 17.916 154.278 17.894C153.486 17.652 153.09 17.476 153.09 17.366C153.112 17.124 153.486 17.014 154.234 17.014C155.598 17.014 156.698 17.3 157.512 17.894L159.14 15.628C157.798 14.55 156.038 14.022 153.904 14.022C150.274 14.022 148.404 15.232 148.404 17.432C148.404 18.972 149.372 20.028 151.33 20.578L153.156 21.106C154.146 21.392 154.652 21.59 154.652 21.722C154.652 22.052 154.3 22.206 153.574 22.206C152.056 22.206 150.626 21.832 149.306 21.106L147.986 23.548ZM160.125 23.548C161.291 24.494 163.359 25.198 165.823 25.198C169.431 25.198 171.477 23.988 171.477 21.81C171.477 20.38 170.377 19.038 168.243 18.422L166.659 17.96C166.593 17.938 166.527 17.916 166.417 17.894C165.625 17.652 165.229 17.476 165.229 17.366C165.251 17.124 165.625 17.014 166.373 17.014C167.737 17.014 168.837 17.3 169.651 17.894L171.279 15.628C169.937 14.55 168.177 14.022 166.043 14.022C162.413 14.022 160.543 15.232 160.543 17.432C160.543 18.972 161.511 20.028 163.469 20.578L165.295 21.106C166.285 21.392 166.791 21.59 166.791 21.722C166.791 22.052 166.439 22.206 165.713 22.206C164.195 22.206 162.765 21.832 161.445 21.106L160.125 23.548Z" fill="#343747"></path> </svg> 